<svg width="92" height="92" viewBox="0 0 92 92" fill="none" xmlns="http://www.w3.org/2000/svg">
<circle cx="46" cy="46" r="46" fill="url(#paint0_linear_31_4)"/>
<path d="M31.858 67.8C31.538 64.8773 31.25 61.6773 30.994 58.2C30.7593 54.7013 30.578 51.2133 30.45 47.736C30.386 46.0293 30.3753 44.376 30.418 42.776C30.4607 41.176 30.5567 39.768 30.706 38.552C32.434 39.064 33.7673 39.2987 34.706 39.256C35.6447 39.192 36.2527 38.8293 36.53 38.168C36.85 37.4 36.658 36.664 35.954 35.96C35.2713 35.2347 33.778 34.4773 31.474 33.688C31.858 32.7493 32.37 31.7893 33.01 30.808C33.6713 29.8267 34.354 29.0373 35.058 28.44C36.338 30.1893 37.3727 31.2987 38.162 31.768C38.9727 32.216 39.73 32.1733 40.434 31.64C41.1167 31.1493 41.298 30.328 40.978 29.176C40.658 28.0027 40.05 26.84 39.154 25.688C40.0287 25.304 41.2127 24.9947 42.706 24.76C44.1993 24.5253 45.49 24.408 46.578 24.408C49.5433 24.408 52.1247 24.728 54.322 25.368C56.5193 25.9867 58.3433 26.904 59.794 28.12C61.2447 29.3147 62.322 30.7653 63.026 32.472C63.7513 34.1573 64.114 36.0773 64.114 38.232C64.114 40.6 63.6447 42.68 62.706 44.472C61.7673 46.264 60.466 47.672 58.802 48.696C57.138 49.6987 55.218 50.2 53.042 50.2C51.2073 50.2 49.6607 49.88 48.402 49.24C47.1647 48.5787 46.226 47.672 45.586 46.52C44.9673 45.368 44.658 44.0347 44.658 42.52C44.658 40.3653 45.298 38.648 46.578 37.368C47.858 36.0667 49.458 35.416 51.378 35.416C52.9353 35.416 54.162 35.8 55.058 36.568C55.9753 37.336 56.434 38.2213 56.434 39.224C56.434 39.8 56.2847 40.2693 55.986 40.632C55.7087 40.9733 55.282 41.144 54.706 41.144C54.322 41.144 54.0233 41.0693 53.81 40.92C53.618 40.7493 53.4367 40.5573 53.266 40.344C53.1167 40.1093 52.914 39.9173 52.658 39.768C52.402 39.5973 52.018 39.512 51.506 39.512C50.8447 39.512 50.3433 39.768 50.002 40.28C49.682 40.792 49.522 41.3893 49.522 42.072C49.522 43.1813 49.874 44.1093 50.578 44.856C51.282 45.6027 52.1887 45.976 53.298 45.976C55.154 45.976 56.6153 45.2933 57.682 43.928C58.77 42.5413 59.314 40.7493 59.314 38.552C59.314 36.0773 58.642 34.072 57.298 32.536C55.9753 31 54.1087 30.232 51.698 30.232C49.778 30.232 48.0607 30.7227 46.546 31.704C45.0527 32.664 43.7833 34.072 42.738 35.928C41.714 37.784 40.946 40.024 40.434 42.648C40.0073 44.952 39.698 46.7867 39.506 48.152C39.3353 49.496 39.282 50.5307 39.346 51.256C39.4313 51.9813 39.6233 52.5253 39.922 52.888C40.2207 53.2507 40.626 53.592 41.138 53.912C41.522 54.1253 41.9807 54.3813 42.514 54.68C43.0473 54.9573 43.634 55.256 44.274 55.576C44.5087 55.6613 44.7433 55.768 44.978 55.896C45.234 56.024 45.49 56.1413 45.746 56.248C46.0447 56.376 46.3433 56.5147 46.642 56.664C46.962 56.8133 47.282 56.9627 47.602 57.112C47.858 57.2187 48.1033 57.336 48.338 57.464C48.594 57.5707 48.8393 57.6773 49.074 57.784C49.3513 57.912 49.6073 58.04 49.842 58.168C50.0767 58.296 50.3113 58.4133 50.546 58.52C50.738 58.6053 50.9193 58.6907 51.09 58.776C51.282 58.8613 51.4633 58.9467 51.634 59.032C51.826 59.1173 52.018 59.2027 52.21 59.288C54.642 60.4613 56.6367 61.4427 58.194 62.232C59.7513 63.0213 60.9567 63.736 61.81 64.376C62.6633 64.9947 63.2607 65.624 63.602 66.264C63.9433 66.8827 64.114 67.608 64.114 68.44C64.114 69.1653 63.858 69.816 63.346 70.392C62.834 70.968 62.1087 71.256 61.17 71.256C60.7647 71.256 60.306 71.1813 59.794 71.032C59.3033 70.904 58.642 70.6267 57.81 70.2C56.9993 69.7733 55.9113 69.144 54.546 68.312C53.1807 67.48 51.4313 66.3707 49.298 64.984C47.186 63.5973 44.5727 61.8693 41.458 59.8C40.306 59.032 39.41 58.7547 38.77 58.968C38.1513 59.16 37.746 59.7573 37.554 60.76C37.2767 62.104 37.074 63.48 36.946 64.888C36.818 66.2747 36.658 67.416 36.466 68.312C36.2527 69.2293 35.986 69.9333 35.666 70.424C35.346 70.8933 34.8447 71.128 34.162 71.128C33.394 71.128 32.85 70.8507 32.53 70.296C32.21 69.7413 31.986 68.9093 31.858 67.8ZM34.738 66.136C34.162 66.136 33.714 65.9973 33.394 65.72C33.0953 65.4213 32.946 64.856 32.946 64.024C32.946 63.32 33.074 62.84 33.33 62.584C33.6073 62.328 34.034 62.232 34.61 62.296L34.738 66.136ZM32.818 56.024C32.434 55.9813 32.1247 55.8533 31.89 55.64C31.6553 55.4267 31.538 54.9573 31.538 54.232C31.538 53.4213 31.6553 52.8987 31.89 52.664C32.146 52.4293 32.6047 52.3333 33.266 52.376L32.818 56.024ZM55.986 58.328C54.962 58.328 54.1513 58.0613 53.554 57.528C52.9567 56.9947 52.658 56.28 52.658 55.384C52.658 54.168 52.9247 53.272 53.458 52.696C53.9913 52.0987 54.77 51.8 55.794 51.8C56.9247 51.8 57.778 52.0667 58.354 52.6C58.9513 53.112 59.25 53.912 59.25 55C59.25 56.0453 58.9727 56.8667 58.418 57.464C57.8847 58.04 57.074 58.328 55.986 58.328Z" fill="white"/>
<defs>
<linearGradient id="paint0_linear_31_4" x1="32.0761" y1="7.35282e-07" x2="59.924" y2="92" gradientUnits="userSpaceOnUse">
<stop stop-color="#D9D9D9"/>
<stop offset="1" stop-color="#7C86FF"/>
</linearGradient>
</defs>
</svg>
